<?xml version="1.0" encoding="UTF-8" standalone="no"?>
<svg
   xmlns:dc="http://purl.org/dc/elements/1.1/"
   xmlns:cc="http://creativecommons.org/ns#"
   xmlns:rdf="http://www.w3.org/1999/02/22-rdf-syntax-ns#"
   xmlns:svg="http://www.w3.org/2000/svg"
   xmlns="http://www.w3.org/2000/svg"
   xmlns:sodipodi="http://sodipodi.sourceforge.net/DTD/sodipodi-0.dtd"
   xmlns:inkscape="http://www.inkscape.org/namespaces/inkscape"
   inkscape:export-ydpi="10714.286"
   inkscape:export-xdpi="10714.286"
   inkscape:export-filename="/home/caleb/Desktop/2017-09-05 coq logo/coq-vector-large.svg.png"
   sodipodi:docname="coq-logo-vector-black.svg"
   viewBox="0 0 13.5 13.5"
   height="13.5"
   width="13.5"
   inkscape:version="1.0 (4035a4f, 2020-05-01)"
   version="1.1"
   id="svg3406">
  <metadata
     id="metadata3412">
    <rdf:RDF>
      <cc:Work
         rdf:about="">
        <dc:format>image/svg+xml</dc:format>
        <dc:type
           rdf:resource="http://purl.org/dc/dcmitype/StillImage" />
        <dc:title></dc:title>
      </cc:Work>
    </rdf:RDF>
  </metadata>
  <defs
     id="defs3410" />
  <sodipodi:namedview
     inkscape:document-rotation="0"
     inkscape:current-layer="svg3406"
     inkscape:window-maximized="0"
     inkscape:window-y="96"
     inkscape:window-x="598"
     inkscape:cy="6.7185922"
     inkscape:cx="0.99800113"
     inkscape:zoom="34.29"
     showgrid="false"
     id="namedview3408"
     inkscape:window-height="1170"
     inkscape:window-width="1814"
     inkscape:pageshadow="2"
     inkscape:pageopacity="0"
     guidetolerance="10"
     gridtolerance="10"
     objecttolerance="10"
     borderopacity="1"
     bordercolor="#666666"
     pagecolor="#ffffff" />
  <circle
     r="6.75"
     cy="6.75"
     cx="6.75"
     id="path867"
     style="opacity:1;fill:#f9f9f9;stroke:none;stroke-width:0.215625;stroke-linecap:round;stroke-linejoin:round;paint-order:fill markers stroke" />
  <g
     transform="translate(3.4265425,0.1197155)"
     id="g847">
    <path
       sodipodi:nodetypes="scsssssssscccsssssssscscsscsssccsscccssssssss"
       inkscape:connector-curvature="0"
       id="path3556"
       d="m 1.8384225,11.843548 c 0,-0.374586 0.00983,-0.398667 0.3052856,-0.748103 0.3835446,-0.453614 0.494232,-0.685923 0.494232,-1.037287 0,-0.4366685 -0.2697173,-0.7393007 -0.9976309,-1.1193774 C 0.99402696,8.6013277 0.7788754,8.4393022 0.80599769,8.3104822 0.81570648,8.2643697 1.0565438,8.0827758 1.3411918,7.906941 1.9856167,7.5088617 2.2170874,7.1982972 2.3650513,6.5332277 2.508723,5.8874517 2.4619487,5.4304053 2.2167641,5.0842648 2.1136854,4.9387429 2.0102124,4.7401731 1.9868239,4.6429985 1.9453649,4.4707431 1.936426,4.4671958 1.6299803,4.5013886 L 1.3156609,4.5364598 1.5764269,4.3012509 1.8371929,4.066042 1.6420845,4.0270204 C 1.3338504,3.9653736 0.94208058,3.5134592 0.85341945,3.1172796 0.63564565,2.1441635 1.5807382,1.16625 2.7432604,1.1618084 3.5004243,1.1589156 4.215071,1.6070708 4.4549624,2.2352174 4.6187448,2.6640757 4.5570459,3.3602558 4.3126511,3.8409867 4.1406465,4.1793242 3.7590558,4.6044249 3.6273523,4.6044249 3.5251604,4.6044249 3.4482235,4.4455796 3.4039408,4.1431647 3.3357177,3.6772575 3.2601764,3.5376148 3.2874963,3.9279099 c 0.013023,0.1860416 0.038146,0.6565271 0.055828,1.0455232 0.031436,0.6915504 0.2222372,1.75174 0.3356728,1.8651756 0.035016,0.035016 0.083483,-0.046851 0.1256223,-0.212191 C 4.0807532,5.5429478 4.3497006,5.0517513 4.8946231,4.6356721 5.2396614,4.3722158 5.5812104,4.273025 5.9967781,4.3155907 7.0161025,4.4199976 7.682522,5.1884342 7.6801425,6.2566488 7.6781745,7.1410757 7.3659856,7.9098869 6.7709442,8.4956967 6.1447915,9.1121365 5.6930648,9.3201187 4.7408122,9.4304047 4.4210688,9.4674359 4.4158338,9.465495 4.4853166,9.3356656 L 4.5562526,9.2031197 C 4.3123645,9.4047904 4.2630396,9.6996843 4.2059673,9.7963379 3.9644205,10.272449 3.990914,10.648362 4.2984773,11.108941 c 0.2201207,0.329633 0.2460055,0.408025 0.2460055,0.745024 v 0.376629 H 3.1914525 1.8384225 Z M 5.3196632,8.3830987 C 5.4059413,8.0393399 5.1367604,7.6758706 4.9409291,7.871702 4.8517225,7.9609084 4.8516204,7.990068 4.9397753,8.2010521 5.0646267,8.4998639 5.0601763,8.5989906 4.9134906,8.7865175 4.7012509,9.0578504 4.785438,9.0718807 5.0356102,8.8068695 5.168736,8.6658474 5.29656,8.4751502 5.3196635,8.3830987 Z"
       style="fill:#000000;stroke-width:0.913183" />
    <path
       sodipodi:nodetypes="ssccccssscccs"
       inkscape:connector-curvature="0"
       id="path3554"
       d="m 1.6963384,11.797764 c 0,-0.441886 0.00729,-0.460304 0.318304,-0.804743 0.3527418,-0.390645 0.5848273,-0.801904 0.5871181,-1.0887604 l 0.00151,-0.088908 0.7391622,-0.00566 0.8651099,-0.0101 -0.074772,0.2444364 c -0.1083433,0.354182 -0.024112,0.685715 0.2653724,1.06525 0.1468634,0.192548 0.1747278,0.301773 0.1747278,0.684914 v 0.455834 H 3.134604 1.6963406 Z"
       style="fill:#000000;stroke-width:0.913183" />
    <path
       inkscape:connector-curvature="0"
       id="path3552"
       d="M 3.5210339,4.6602757 C 3.4925232,4.6141441 3.4465133,4.4092492 3.4187897,4.2049535 3.3565208,3.7460919 3.2459625,3.6291519 2.8669996,3.6213135 2.639624,3.6166105 2.4751203,3.6741521 2.1518098,3.8714791 1.6108653,4.2016351 1.3895118,4.2040547 1.0349037,3.8836877 0.19312118,3.1231877 0.53088107,1.7561153 1.6875789,1.242006 2.4469965,0.9044731 3.0999215,0.9351556 3.7777971,1.3402304 4.2330667,1.6122836 4.5626042,2.1212176 4.6293386,2.6553415 4.7040501,3.2533119 4.3968896,4.0988367 3.9383839,4.5573425 3.7362241,4.7595023 3.6027108,4.7924313 3.5210339,4.6602757 Z"
       style="fill:#000000;stroke-width:0.913183" />
  </g>
</svg>
